<svg id="Layer_2" data-name="Layer 2" xmlns="http://www.w3.org/2000/svg" width="42" height="40.5" viewBox="0 0 42 40.5">
  <g id="Surfaces">
    <g id="Publishing_Surface" data-name="Publishing Surface">
      <g id="Outline_no_shadow" data-name="Outline no shadow">
        <path id="Path_83228" data-name="Path 83228" d="M7,0H35a7,7,0,0,1,7,7V33.5a7,7,0,0,1-7,7H7a7,7,0,0,1-7-7V7A7,7,0,0,1,7,0Z" fill="#49021f"/>
      </g>
    </g>
  </g>
  <g id="Outlined_Mnemonics_Logos" data-name="Outlined Mnemonics &amp; Logos" transform="translate(11.322 9.039)">
    <g id="Id">
      <path id="Path_83183" data-name="Path 83183" d="M18.743,14.238V31.628q0,.278-.25.278H15.318c-.149,0-.222-.092-.222-.278V14.238c0-.148.083-.222.25-.222h3.175a.2.2,0,0,1,.222.222Z" transform="translate(-15.096 -12.542)" fill="#f36"/>
      <path id="Path_83184" data-name="Path 83184" d="M31.282,31.792a8.6,8.6,0,0,1-3.7-.777,5.888,5.888,0,0,1-2.594-2.345,7.5,7.5,0,0,1-.944-3.927,7.247,7.247,0,0,1,.944-3.635,6.924,6.924,0,0,1,2.747-2.664,8.866,8.866,0,0,1,4.356-1q.138,0,.361.014c.148.01.472.023.676.042V12.247c0-.129.055-.194.167-.194h3.218a.147.147,0,0,1,.166.166V28.407q0,.472.042,1.027t.069,1a.286.286,0,0,1-.167.278,12.689,12.689,0,0,1-2.672.833A15.052,15.052,0,0,1,31.282,31.792Zm1.842-3.441V20.775a5.15,5.15,0,0,0-.607-.083,5.5,5.5,0,0,0-.569-.028,4.284,4.284,0,0,0-1.942.444,3.57,3.57,0,0,0-2.026,3.469,4.889,4.889,0,0,0,.292,1.776,3.382,3.382,0,0,0,.777,1.221,2.962,2.962,0,0,0,1.166.694,4.566,4.566,0,0,0,1.429.222c.259,0,.5-.009.721-.028A4.642,4.642,0,0,0,33.123,28.351Z" transform="translate(-17.33 -12.052)" fill="#f36"/>
    </g>
  </g>
</svg>
